<svg width="32" height="32" viewBox="0 0 32 32" fill="none" xmlns="http://www.w3.org/2000/svg">
<rect x="0.5" y="0.5" width="31" height="31" rx="3.5" fill="transparent" stroke="#2F49D1"/>
<path d="M17.455 10.8337C17.6663 10.6493 17.9475 10.5474 18.2392 10.5494C18.531 10.5514 18.8104 10.6573 19.0187 10.8446C19.2269 11.0319 19.3476 11.286 19.3553 11.5534C19.363 11.8207 19.2571 12.0804 19.06 12.2775L13.075 19.1387C12.9721 19.2404 12.8479 19.3219 12.7098 19.3785C12.5717 19.4351 12.4226 19.4656 12.2714 19.4682C12.1201 19.4707 11.9699 19.4453 11.8296 19.3934C11.6894 19.3416 11.5619 19.2643 11.455 19.1662L7.48599 15.528C7.37546 15.4336 7.28681 15.3197 7.22532 15.1932C7.16383 15.0667 7.13077 14.9302 7.1281 14.7917C7.12544 14.6533 7.15323 14.5157 7.20981 14.3873C7.26639 14.2589 7.35061 14.1422 7.45743 14.0443C7.56426 13.9464 7.69151 13.8692 7.8316 13.8173C7.97168 13.7655 8.12172 13.74 8.27278 13.7424C8.42383 13.7449 8.5728 13.7752 8.7108 13.8315C8.8488 13.8879 8.973 13.9692 9.07599 14.0705L12.217 16.9484L17.425 10.864C17.4343 10.8534 17.4444 10.8433 17.455 10.8337ZM16.075 17.9012L17.455 19.1662C17.5619 19.2641 17.6892 19.3412 17.8294 19.3929C17.9695 19.4447 18.1196 19.47 18.2706 19.4675C18.4217 19.4649 18.5706 19.4345 18.7085 19.378C18.8465 19.3215 18.9706 19.2401 19.0735 19.1387L25.0615 12.2775C25.1691 12.1802 25.2541 12.0639 25.3116 11.9358C25.3691 11.8076 25.3978 11.6702 25.396 11.5316C25.3943 11.3931 25.3621 11.2563 25.3013 11.1294C25.2406 11.0025 25.1526 10.8881 25.0426 10.7931C24.9326 10.6981 24.8028 10.6243 24.661 10.5763C24.5192 10.5283 24.3684 10.5069 24.2174 10.5136C24.0664 10.5202 23.9184 10.5546 23.7823 10.6148C23.6461 10.675 23.5246 10.7598 23.425 10.864L18.2155 16.9484L17.488 16.2801L16.0735 17.9012H16.075Z" fill="#2F49D1"/>
</svg>
